<?xml version="1.0" encoding="utf-8"?>
<!DOCTYPE svg PUBLIC "-//W3C//DTD SVG 20010904//EN" "http://www.w3.org/TR/2001/REC-SVG-20010904/DTD/svg10.dtd">
<svg version="1.0" width="601.5pt" height="423.75pt" viewBox="0 0 601.5 423.75" preserveAspectRatio="xMidYMid meet" xmlns="http://www.w3.org/2000/svg">
  <g transform="translate(0,423.75)scale(.075,.075)" fill="#FFF">
    <path id="path1" d="M 2515 -5529 c -706 23 -1204 59 -1410 100 -249 50 -396 129 -571 305 -82 82 -139 165 -195 282 -57 120 -74 179 -103 354 -166 1011 -178 2112 -36 3143 50 361 92 511 191 677 152 257 376 418 669 484 246 54 982 91 2285 115 775 14 1007 11 1051 -13 73 -40 114 -117 100 -190 -15 -82 -74 -133 -163 -143 -29 -3 -364 -9 -743 -15 -893 -13 -1455 -32 -2085 -70 -370 -22 -545 -80 -695 -230 -153 -152 -202 -308 -270 -848 -82 -661 -92 -1563 -25 -2234 24 -236 82 -628 109 -732 57 -220 172 -375 340 -460 158 -79 239 -88 1171 -131 641 -30 1218 -38 2275 -32 1901 11 2308 38 2580 169 69 33 101 57 167 123 69 70 90 99 133 187 85 175 135 410 180 850 82 808 55 1944 -60 2518 -93 464 -253 676 -578 764 -48 13 -213 43 -367 66 -153 22 -294 48 -312 57 -53 25 -93 88 -93 145 0 27 6 64 14 83 16 36 73 80 126 95 73 21 556 -41 746 -95 354 -103 623 -374 758 -762 64 -185 106 -448 148 -913 20 -233 22 -312 23 -925 0 -663 0 -673 -28 -945 -52 -506 -82 -687 -147 -883 -69 -203 -157 -355 -283 -484 -188 -193 -419 -294 -829 -362 -165 -28 -378 -39 -908 -51 -515 -11 -2825 -11 -3165 1 z M 3286 -3955 c -75 30 -126 80 -171 166 l -35 67 0 750 0 750 32 48 c 63 93 162 117 248 60 82 -54 85 -80 95 -781 6 -471 14 -608 33 -627 16 -16 70 7 239 104 87 50 250 144 363 208 252 144 554 324 598 357 55 41 42 95 -36 140 -103 59 -569 322 -762 430 -293 164 -337 195 -360 246 -11 24 -20 65 -20 95 0 48 4 57 40 96 46 50 94 76 139 76 40 0 81 -22 760 -411 634 -362 676 -391 728 -497 22 -46 27 -70 27 -127 0 -78 -20 -127 -76 -190 -54 -62 -267 -194 -733 -455 -121 -67 -274 -155 -340 -195 -240 -143 -518 -297 -571 -316 -71 -25 -127 -24 -198 6 z M 4825 -391 c -48 22 -69 44 -90 94 -20 49 -19 72 6 125 42 86 130 123 212 88 47 -20 106 -83 113 -122 13 -71 -29 -149 -98 -183 -54 -26 -91 -26 -143 -2 z " />
  </g>
</svg>