<?xml version="1.0" encoding="utf-8"?>
<!DOCTYPE svg PUBLIC "-//W3C//DTD SVG 20010904//EN" "http://www.w3.org/TR/2001/REC-SVG-20010904/DTD/svg10.dtd">
<svg version="1.0" width="423.75pt" height="423.75pt" viewBox="0 0 423.75 423.75" preserveAspectRatio="xMidYMid meet" xmlns="http://www.w3.org/2000/svg">
  <g transform="translate(0,423.75)scale(.075,.075)" fill="#FFF">
    <path id="path1" d="M 2465 -5550 c -153 14 -477 95 -642 161 -159 63 -445 217 -583 314 -240 170 -539 471 -725 731 -92 129 -256 440 -309 586 -57 159 -109 365 -138 551 -31 203 -32 540 0 745 64 417 172 725 382 1092 75 132 233 330 364 458 265 257 529 428 918 593 214 91 309 120 405 122 75 2 84 0 125 -28 66 -46 88 -100 100 -248 5 -67 7 -195 3 -285 -10 -273 -10 -273 -268 -285 -234 -10 -268 -20 -350 -98 l -62 -60 70 35 c 208 103 336 103 527 -1 67 -37 94 -71 119 -156 11 -39 41 -109 65 -155 51 -97 59 -163 24 -219 -28 -47 -82 -70 -279 -119 -369 -92 -551 -225 -695 -511 -57 -114 -71 -190 -70 -398 0 -278 19 -340 178 -579 47 -70 88 -136 91 -147 3 -10 -7 -61 -24 -112 -36 -114 -48 -221 -32 -299 l 12 -57 47 6 c 110 14 236 64 400 158 100 57 141 63 257 36 145 -33 210 -41 385 -48 193 -7 368 7 522 43 179 41 186 39 349 -82 73 -54 105 -70 209 -105 146 -49 144 -49 155 67 8 85 2 145 -26 256 -33 133 -28 155 61 272 120 159 180 365 180 621 0 283 -76 476 -253 642 -131 122 -252 176 -513 228 -270 54 -316 84 -318 205 -1 48 8 73 71 205 107 226 108 230 123 580 7 157 17 276 26 303 7 25 12 47 11 48 -1 2 -110 19 -242 38 -295 44 -306 47 -344 94 -63 75 -47 151 43 203 61 35 77 35 276 9 190 -26 394 -68 577 -119 186 -53 243 -76 468 -185 426 -208 754 -487 1026 -873 88 -125 189 -305 226 -403 196 -519 220 -648 209 -1152 -8 -381 -24 -493 -111 -758 -97 -297 -183 -479 -325 -693 -206 -309 -397 -505 -712 -730 -9 -7 -42 -30 -73 -52 -125 -89 -462 -257 -636 -315 -116 -39 -324 -93 -444 -115 -104 -19 -673 -30 -830 -15 z m 530 280 c 242 21 499 73 691 141 176 62 492 237 689 383 103 76 330 304 424 426 178 229 281 416 365 658 98 283 125 443 133 772 9 378 -16 593 -94 820 -116 340 -251 576 -464 809 -181 200 -356 341 -589 478 -116 68 -335 169 -453 209 l -97 33 7 -27 c 12 -43 7 -488 -6 -577 -16 -102 -55 -234 -92 -307 -16 -32 -29 -61 -29 -66 0 -4 27 -13 60 -20 83 -17 290 -87 361 -122 382 -192 609 -571 612 -1020 2 -220 -35 -390 -132 -608 -41 -92 -52 -114 -99 -184 l -25 -38 18 -62 c 25 -89 31 -274 12 -365 -20 -91 -102 -260 -140 -288 -42 -30 -188 -26 -322 9 -94 24 -144 46 -370 164 l -80 42 -110 -24 c -215 -46 -684 -42 -878 8 l -98 25 -125 -64 c -202 -104 -357 -145 -548 -145 -85 0 -117 4 -134 16 -30 21 -66 95 -98 201 -35 113 -38 261 -10 405 l 20 97 -46 69 c -107 160 -172 329 -189 487 -7 57 -9 179 -6 285 6 219 22 291 97 444 136 278 287 432 545 557 125 61 253 109 290 109 12 0 30 6 40 14 17 12 17 17 5 60 -16 59 -40 76 -105 76 -81 -1 -122 -27 -287 -188 l -154 -149 -147 -72 c -182 -88 -238 -105 -344 -104 -152 1 -233 64 -233 183 0 57 23 111 65 150 14 14 72 48 128 75 l 102 50 76 115 c 42 63 91 140 109 171 42 74 160 207 238 268 69 55 168 106 237 121 25 6 89 16 142 23 97 12 98 13 104 42 9 41 10 136 3 173 l -6 30 -142 -57 c -288 -117 -525 -249 -700 -391 -139 -113 -392 -380 -473 -500 -75 -111 -204 -370 -248 -500 -105 -309 -135 -475 -142 -805 -8 -363 15 -545 102 -815 91 -278 296 -635 490 -851 252 -281 548 -497 887 -649 259 -115 471 -166 848 -203 76 -8 201 -6 315 3 z " />
  </g>
</svg>