<?xml version="1.0" encoding="utf-8"?>
<!DOCTYPE svg PUBLIC "-//W3C//DTD SVG 20010904//EN" "http://www.w3.org/TR/2001/REC-SVG-20010904/DTD/svg10.dtd">
<svg version="1.0" width="430.5pt" height="423.75pt" viewBox="0 0 430.5 423.75" preserveAspectRatio="xMidYMid meet" xmlns="http://www.w3.org/2000/svg">
  <g transform="translate(0,423.75)scale(.075,.075)" fill="#FFF">
    <path id="path1" d="M 3670 -5045 c -223 42 -455 163 -627 327 -116 112 -194 219 -264 363 -67 137 -103 262 -119 409 -26 230 -21 211 -58 214 -42 4 -221 -29 -387 -73 -324 -84 -606 -213 -895 -406 -207 -139 -381 -291 -605 -528 -93 -98 -126 -121 -178 -121 -74 0 -109 29 -162 132 -105 207 -130 321 -129 593 1 182 3 209 27 298 14 54 46 141 71 194 26 52 46 101 46 109 0 7 -15 16 -32 19 -49 11 -87 36 -110 73 -17 29 -21 49 -20 129 3 289 135 607 344 830 108 116 104 107 78 144 -49 69 -37 146 52 327 122 249 310 434 578 567 l 114 57 -59 31 c -92 46 -245 104 -349 132 -190 51 -274 60 -655 70 -152 4 -224 10 -248 20 -65 27 -92 144 -49 209 32 50 309 207 530 301 220 94 503 178 764 227 109 21 147 22 547 23 l 430 0 150 -28 c 378 -71 656 -167 985 -338 283 -148 475 -288 713 -519 322 -312 532 -616 732 -1059 182 -404 264 -753 296 -1263 6 -95 11 -173 12 -174 18 -6 152 -123 213 -186 179 -186 309 -362 320 -434 17 -114 -104 -198 -222 -154 -15 6 -29 8 -32 5 -3 -3 5 -29 17 -58 98 -219 106 -258 72 -326 -21 -41 -80 -74 -130 -74 -15 0 -86 27 -157 61 -159 75 -309 135 -404 161 -84 24 -79 25 -211 -65 -131 -89 -295 -166 -439 -205 -99 -28 -434 -36 -550 -14 z m 387 296 c 97 13 255 65 325 108 30 18 83 57 118 86 190 157 207 160 465 85 l 69 -20 -24 25 c -14 13 -56 48 -94 77 -39 29 -80 68 -93 87 -44 65 -23 164 43 207 21 14 46 17 127 16 l 100 -2 -19 21 c -10 12 -47 43 -81 71 -93 74 -101 92 -113 252 -6 75 -15 200 -20 278 -27 366 -110 701 -255 1029 -132 298 -356 625 -604 882 -471 488 -1015 761 -1701 854 -179 24 -675 24 -849 0 -213 -30 -502 -102 -626 -156 l -39 -17 89 -18 c 307 -63 618 -191 870 -357 137 -91 191 -142 200 -191 14 -74 -18 -148 -71 -169 -13 -5 -80 -18 -149 -29 -236 -38 -368 -97 -530 -238 -90 -77 -173 -178 -159 -192 5 -5 54 -16 109 -24 131 -20 197 -42 232 -78 25 -26 28 -36 28 -98 0 -65 -2 -72 -31 -101 -24 -23 -64 -42 -157 -73 -164 -56 -260 -111 -369 -215 -105 -99 -161 -171 -210 -266 -42 -83 -83 -193 -75 -201 3 -3 37 1 76 10 39 9 111 19 161 22 157 12 220 -32 220 -151 l 0 -57 -153 -152 c -93 -92 -165 -173 -185 -208 -51 -86 -101 -209 -117 -285 -24 -113 -17 -451 11 -482 1 -2 52 42 111 97 582 542 1319 870 2059 918 91 6 106 5 146 -14 82 -40 90 -73 74 -312 -22 -329 83 -585 330 -801 207 -181 474 -257 761 -218 z " />
  </g>
</svg>