<?xml version="1.0" encoding="utf-8"?>
<!DOCTYPE svg PUBLIC "-//W3C//DTD SVG 20010904//EN" "http://www.w3.org/TR/2001/REC-SVG-20010904/DTD/svg10.dtd">
<svg version="1.0" width="406.5pt" height="423.75pt" viewBox="0 0 406.5 423.75" preserveAspectRatio="xMidYMid meet" xmlns="http://www.w3.org/2000/svg">
  <g transform="translate(0,423.75)scale(.075,.075)" fill="#FFF">
    <path id="path1" d="M 690 -5473 c -58 2 -115 5 -126 8 -30 7 -48 49 -233 541 l -161 431 2 1799 c 2 1426 6 1804 16 1821 7 13 25 24 45 27 17 3 278 9 579 13 301 4 549 10 551 13 3 3 9 137 14 299 9 288 10 294 32 313 22 17 48 18 405 17 209 0 391 -4 404 -9 12 -5 164 -148 336 -318 l 314 -309 483 -7 c 418 -6 487 -9 509 -23 14 -9 329 -320 701 -692 606 -605 677 -680 683 -713 3 -21 6 -744 6 -1608 l 0 -1570 -27 -17 c -26 -17 -139 -18 -2228 -19 -1210 0 -2247 1 -2305 3 z m 4287 266 c 4 5 9 655 11 1445 l 2 1437 -608 608 -609 609 -496 12 c -446 12 -499 15 -523 31 -15 10 -163 152 -329 316 l -302 299 -236 0 -235 0 -6 -72 c -3 -40 -8 -158 -11 -263 -7 -199 -15 -269 -34 -288 -9 -9 -164 -14 -559 -20 -301 -4 -562 -10 -580 -13 l -33 -5 3 -1692 3 -1692 46 -125 c 70 -188 210 -553 220 -572 9 -16 33 -18 237 -21 527 -6 4031 -1 4039 6 z M 1077 -5012 l -27 28 0 1605 0 1606 25 23 c 24 23 26 23 422 32 219 6 401 13 404 16 4 4 11 158 17 344 11 356 16 390 59 396 17 2 106 -80 400 -371 l 378 -374 364 -6 c 201 -4 500 -7 665 -7 l 300 0 357 -357 357 -358 6 -59 c 9 -82 3 -2512 -6 -2522 -20 -19 -325 -23 -1949 -24 l -1745 0 -27 28 z m 3442 238 l 31 6 0 1112 0 1111 -282 281 -283 282 -610 6 c -335 3 -635 9 -665 13 l -55 6 -180 176 c -231 226 -263 256 -270 250 -3 -3 -10 -84 -15 -180 -11 -180 -21 -233 -45 -243 -33 -12 -138 -18 -468 -26 -192 -4 -351 -11 -355 -15 -4 -4 -8 -632 -10 -1396 l -2 -1389 1589 0 c 874 0 1603 3 1620 6 z M 2213 -4153 c -65 9 -64 3 -70 532 -3 262 -2 588 2 724 7 234 9 250 29 273 21 24 25 24 226 30 222 6 393 -5 415 -27 11 -11 15 -116 20 -499 9 -559 0 -989 -20 -1017 -12 -16 -37 -18 -292 -19 -153 -1 -292 0 -310 3 z m 341 259 c 14 5 16 61 16 519 l 0 514 -45 7 c -25 3 -60 3 -78 0 l -34 -6 -6 -203 c -9 -257 -9 -765 -1 -806 6 -31 7 -31 69 -31 35 0 70 3 79 6 z M 3294 -4150 c -20 6 -34 19 -38 32 -8 33 -7 1471 2 1484 23 36 53 39 339 39 l 283 0 27 -28 28 -27 4 -578 c 4 -679 -2 -872 -29 -905 -18 -22 -22 -22 -302 -24 -159 -1 -297 2 -314 7 z m 370 256 c 14 5 16 61 16 519 l 0 513 -22 6 c -29 7 -97 7 -126 0 l -22 -6 0 -512 c 0 -282 3 -516 7 -519 8 -9 126 -9 147 -1 z " />
  </g>
</svg>